<?xml version="1.0" encoding="UTF-8"?>
<svg width="800" height="600" viewBox="0 0 800 600" fill="none" xmlns="http://www.w3.org/2000/svg">
  <rect width="800" height="600" fill="#F0F9FF" />
  <circle cx="400" cy="300" r="200" fill="#0EA5E9" fill-opacity="0.1" />
  <circle cx="400" cy="300" r="150" fill="#0EA5E9" fill-opacity="0.2" />
  <circle cx="400" cy="300" r="100" fill="#0EA5E9" fill-opacity="0.3" />
  <circle cx="400" cy="300" r="50" fill="#0EA5E9" fill-opacity="0.4" />
  <path
    d="M400 100C400 100 450 150 500 200C550 250 600 300 600 300C600 300 550 350 500 400C450 450 400 500 400 500C400 500 350 450 300 400C250 350 200 300 200 300C200 300 250 250 300 200C350 150 400 100 400 100Z"
    fill="#0EA5E9"
    fill-opacity="0.5"
  />
  <path
    d="M400 150C400 150 430 180 460 210C490 240 520 270 520 270C520 270 490 300 460 330C430 360 400 390 400 390C400 390 370 360 340 330C310 300 280 270 280 270C280 270 310 240 340 210C370 180 400 150 400 150Z"
    fill="#0EA5E9"
    fill-opacity="0.6"
  />
  <path
    d="M400 200C400 200 410 210 420 220C430 230 440 240 440 240C440 240 430 250 420 260C410 270 400 280 400 280C400 280 390 270 380 260C370 250 360 240 360 240C360 240 370 230 380 220C390 210 400 200 400 200Z"
    fill="#0EA5E9"
    fill-opacity="0.7"
  />
</svg> 