<?xml version="1.0" encoding="UTF-8"?>
<svg width="120" height="32" viewBox="0 0 120 32" fill="none" xmlns="http://www.w3.org/2000/svg">
  <path
    d="M16 0C7.163 0 0 7.163 0 16C0 24.837 7.163 32 16 32C24.837 32 32 24.837 32 16C32 7.163 24.837 0 16 0ZM16 4C22.627 4 28 9.373 28 16C28 22.627 22.627 28 16 28C9.373 28 4 22.627 4 16C4 9.373 9.373 4 16 4Z"
    fill="#0EA5E9"
  />
  <path
    d="M16 8C11.582 8 8 11.582 8 16C8 20.418 11.582 24 16 24C20.418 24 24 20.418 24 16C24 11.582 20.418 8 16 8ZM16 12C18.209 12 20 13.791 20 16C20 18.209 18.209 20 16 20C13.791 20 12 18.209 12 16C12 13.791 13.791 12 16 12Z"
    fill="#0EA5E9"
  />
  <path
    d="M40 8H44V24H40V8ZM48 8H52V24H48V8ZM56 8H60V24H56V8ZM64 8H68V24H64V8ZM72 8H76V24H72V8ZM80 8H84V24H80V8ZM88 8H92V24H88V8ZM96 8H100V24H96V8ZM104 8H108V24H104V8ZM112 8H116V24H112V8Z"
    fill="#0EA5E9"
  />
</svg> 